<?xml version="1.0" standalone="no"?>
<!DOCTYPE svg PUBLIC "-//W3C//DTD SVG 20010904//EN"
 "http://www.w3.org/TR/2001/REC-SVG-20010904/DTD/svg10.dtd">
<svg version="1.0" xmlns="http://www.w3.org/2000/svg"
 width="512.000000pt" height="512.000000pt" viewBox="0 0 512.000000 512.000000"
 preserveAspectRatio="xMidYMid meet">

<g transform="translate(0.000000,512.000000) scale(0.100000,-0.100000)"
fill="#000000" stroke="none">
<path d="M1790 5113 c-148 -26 -289 -116 -373 -240 -91 -132 -106 -216 -107
-565 0 -190 -3 -238 -13 -238 -23 0 -97 -70 -120 -114 -20 -37 -22 -55 -22
-186 0 -130 2 -149 22 -186 52 -96 134 -134 295 -134 l98 0 0 -78 0 -79 -142
-6 c-178 -7 -302 -37 -443 -106 -284 -140 -488 -407 -547 -716 -13 -71 -39
-416 -88 -1202 -39 -606 -70 -1128 -70 -1160 0 -64 5 -75 37 -92 66 -34 92 -2
153 189 57 179 83 222 161 265 l54 30 1849 3 c2011 2 1907 5 1984 -52 58 -42
81 -86 133 -246 54 -171 55 -172 86 -189 32 -16 60 -14 83 9 16 16 20 33 20
81 0 33 -31 556 -70 1162 -49 782 -75 1131 -88 1202 -59 312 -270 585 -559
722 -135 64 -258 93 -430 100 l-143 6 0 79 0 78 98 0 c161 0 243 38 295 134
20 37 22 56 22 186 0 166 -11 199 -85 262 -55 48 -98 58 -238 58 l-121 0 -60
100 -61 101 0 117 c0 92 -4 126 -19 157 -23 51 -89 111 -138 124 -25 7 -259
11 -683 11 -424 0 -658 -4 -683 -11 -49 -13 -115 -73 -138 -124 -15 -31 -19
-65 -19 -157 l0 -117 -61 -101 -60 -100 -65 0 -65 0 3 288 3 287 32 66 c55
111 155 192 280 224 85 22 1461 22 1546 0 125 -32 222 -110 278 -223 33 -66
34 -70 39 -229 5 -154 6 -163 29 -187 31 -32 62 -33 98 -2 26 23 28 29 31 120
13 339 -116 552 -398 660 -54 21 -67 21 -825 22 -423 1 -781 0 -795 -3z m1441
-592 c16 -20 19 -40 19 -150 l0 -126 75 -125 75 -125 -1 -380 c0 -326 -3 -389
-17 -446 -43 -164 -173 -294 -344 -344 -49 -14 -114 -15 -505 -13 l-450 3 -85
42 c-140 70 -240 198 -268 342 -6 30 -10 214 -10 425 l0 371 75 125 75 125 0
123 c0 129 7 157 43 172 12 5 304 8 660 7 l639 -2 19 -24z m-1661 -745 l0
-165 -97 -3 c-159 -5 -177 14 -171 182 3 97 4 103 31 126 26 22 37 24 133 24
l104 0 0 -164z m2222 136 c20 -20 23 -34 26 -123 4 -104 -7 -152 -37 -168 -9
-5 -63 -10 -121 -12 l-105 -4 -3 168 -2 169 110 -4 c98 -3 112 -5 132 -26z
m-2187 -839 c74 -218 306 -397 543 -419 l72 -7 0 -163 0 -164 -350 0 -350 0 0
155 c0 152 -1 156 -25 180 -31 32 -66 32 -102 1 l-28 -24 -3 -156 -3 -156 -27
-6 c-204 -45 -364 -149 -465 -302 -96 -145 -117 -224 -124 -457 -5 -174 -4
-181 17 -207 29 -37 81 -38 115 -3 24 23 25 28 25 179 0 85 5 179 11 208 42
204 220 379 428 424 99 21 2344 20 2443 -1 204 -43 371 -205 423 -410 12 -49
15 -147 15 -577 l0 -518 -124 0 -125 0 -6 48 c-24 191 -62 332 -130 480 l-35
75 20 42 c24 49 26 115 5 159 -9 18 -102 118 -208 223 -164 163 -198 193 -236
203 -55 15 -114 5 -150 -26 l-29 -24 -74 35 c-91 42 -222 80 -343 101 -68 12
-133 15 -270 11 -200 -5 -307 -26 -467 -90 l-84 -33 -38 28 c-21 15 -57 30
-81 34 -81 12 -105 -4 -308 -205 -104 -102 -197 -203 -208 -223 -24 -46 -24
-112 0 -157 l18 -34 -47 -92 c-74 -146 -120 -305 -145 -507 l-6 -48 -125 0
-124 0 0 200 c0 127 -4 208 -11 224 -15 33 -62 52 -97 40 -47 -16 -52 -42 -52
-261 l0 -203 -28 0 c-50 0 -129 -29 -189 -70 -32 -21 -59 -36 -61 -32 -1 4 25
424 57 932 66 1016 65 1010 140 1165 113 237 338 413 596 470 33 7 121 14 195
14 l136 1 19 -57z m2068 -80 c181 -146 310 -387 332 -623 3 -36 8 -82 11 -103
l4 -37 -48 24 c-43 22 -111 44 -184 60 l-27 6 -3 156 -3 156 -28 24 c-36 31
-71 31 -102 -1 -24 -24 -25 -28 -25 -180 l0 -155 -350 0 -350 0 0 165 0 165
38 0 c225 1 492 190 568 401 l17 47 41 -25 c23 -14 72 -50 109 -80z m-933
-508 l0 -165 -180 0 -180 0 0 165 0 165 180 0 180 0 0 -165z m-851 -781 c36
-40 55 -71 67 -111 72 -248 -212 -433 -417 -271 -27 21 -56 50 -65 64 l-17 26
174 174 c95 96 181 174 190 174 10 0 40 -25 68 -56z m1644 -162 c84 -83 153
-158 155 -166 4 -17 -86 -98 -133 -120 -51 -25 -135 -31 -192 -15 -71 20 -146
97 -168 172 -30 105 -1 200 86 282 l50 47 26 -23 c14 -13 93 -93 176 -177z
m-745 -142 c40 -11 106 -37 145 -57 l72 -36 -222 -74 -223 -75 -222 75 -223
74 71 36 c72 36 150 62 232 77 80 15 288 4 370 -20z m-512 -312 l285 -92 296
98 296 99 43 -49 c24 -27 43 -51 43 -54 1 -3 -127 -51 -282 -108 -157 -58
-298 -115 -315 -129 -41 -32 -69 -86 -78 -152 l-7 -51 -88 0 -89 0 0 44 c0 82
-47 173 -116 227 -19 15 -109 54 -201 89 -93 34 -172 66 -177 70 -12 12 75
112 91 106 8 -3 142 -47 299 -98z m-296 -213 c110 -41 183 -74 201 -91 23 -22
49 -87 49 -123 0 -8 -84 -11 -260 -11 -247 0 -260 1 -260 19 0 70 62 271 84
271 7 0 91 -29 186 -65z m1384 -7 c25 -70 46 -160 46 -199 0 -18 -13 -19 -261
-19 l-261 0 7 43 c8 47 28 92 47 104 23 14 363 142 379 142 12 1 25 -21 43
-71z"/>
<path d="M2077 4076 c-84 -31 -148 -103 -167 -190 -29 -132 55 -269 190 -306
122 -34 262 42 306 167 22 64 49 78 144 78 98 0 141 -23 169 -90 49 -119 183
-188 301 -155 61 17 126 65 155 115 78 132 41 279 -90 360 -43 27 -57 30 -124
30 -92 -1 -139 -22 -200 -91 l-41 -47 -58 17 c-72 20 -154 21 -217 1 l-48 -14
-40 45 c-22 25 -58 54 -80 66 -52 26 -149 33 -200 14z m144 -159 c70 -47 60
-151 -17 -183 -46 -19 -84 -11 -119 26 -62 65 -15 178 76 180 14 0 41 -10 60
-23z m777 12 c67 -23 86 -109 37 -167 -67 -80 -198 -18 -181 86 11 72 72 106
144 81z"/>
<path d="M2403 3378 c-27 -13 -47 -59 -38 -88 10 -32 80 -77 141 -91 93 -21
207 18 243 82 20 36 1 83 -41 100 -28 11 -36 10 -71 -11 -51 -29 -105 -29
-150 -1 -38 23 -51 25 -84 9z"/>
</g>
</svg>
